HIERARCHY
ROOT Hips
{
	OFFSET -0.001795 -0.223333 0.028219
	CHANNELS 6 Xposition Yposition Zposition Zrotation Yrotation Xrotation 
	JOINT LeftUpLeg
	{
		OFFSET 0.069520 -0.091406 -0.006815
		CHANNELS 3 Zrotation Yrotation Xrotation
		JOINT LeftLeg
		{
			OFFSET 0.034277 -0.375199 -0.004496
			CHANNELS 3 Zrotation Yrotation Xrotation
			JOINT LeftFoot
			{
				OFFSET -0.013596 -0.397961 -0.043693
				CHANNELS 3 Zrotation Yrotation Xrotation
				JOINT LeftToe
				{
					OFFSET 0.026358 -0.055791 0.119288
					CHANNELS 3 Zrotation Yrotation Xrotation
					End Site
					{
						OFFSET 0.000000 0.000000 0.000000
					}
				}
			}
		}
	}
	JOINT RightUpLeg
	{
		OFFSET -0.067670 -0.090522 -0.004320
		CHANNELS 3 Zrotation Yrotation Xrotation
		JOINT RightLeg
		{
			OFFSET -0.038290 -0.382569 -0.008850
			CHANNELS 3 Zrotation Yrotation Xrotation
			JOINT RightFoot
			{
				OFFSET 0.015774 -0.398415 -0.042312
				CHANNELS 3 Zrotation Yrotation Xrotation
				JOINT RightToe
				{
					OFFSET -0.025372 -0.048144 0.123348
					CHANNELS 3 Zrotation Yrotation Xrotation
					End Site
					{
						OFFSET 0.000000 0.000000 0.000000
					}
				}
			}
		}
	}
	JOINT Spine
	{
		OFFSET -0.002533 0.108963 -0.026696
		CHANNELS 3 Zrotation Yrotation Xrotation
		JOINT Spine1
		{
			OFFSET 0.005487 0.135180 0.001092
			CHANNELS 3 Zrotation Yrotation Xrotation
			JOINT Spine2
			{
				OFFSET 0.001457 0.052922 0.025425
				CHANNELS 3 Zrotation Yrotation Xrotation
				JOINT Neck
				{
					OFFSET -0.002778 0.213870 -0.042857
					CHANNELS 3 Zrotation Yrotation Xrotation
					JOINT Head
					{
						OFFSET 0.005152 0.064970 0.051349
						CHANNELS 3 Zrotation Yrotation Xrotation
						End Site
						{
							OFFSET 0.000000 0.000000 0.000000
						}
					}
				}
				JOINT LeftShoulder
				{
					OFFSET 0.078845 0.121749 -0.034090
					CHANNELS 3 Zrotation Yrotation Xrotation
					JOINT LeftArm
					{
						OFFSET 0.090977 0.030469 -0.008868
						CHANNELS 3 Zrotation Yrotation Xrotation
						JOINT LeftForeArm
						{
							OFFSET 0.259612 -0.012772 -0.027456
							CHANNELS 3 Zrotation Yrotation Xrotation
							JOINT LeftHand
							{
								OFFSET 0.249234 0.008986 -0.001171
								CHANNELS 3 Zrotation Yrotation Xrotation
								End Site
								{
									OFFSET 0.000000 0.000000 0.000000
								}
							}
						}
					}
				}
				JOINT RightShoulder
				{
					OFFSET -0.081759 0.118833 -0.038615
					CHANNELS 3 Zrotation Yrotation Xrotation
					JOINT RightArm
					{
						OFFSET -0.096012 0.032551 -0.009143
						CHANNELS 3 Zrotation Yrotation Xrotation
						JOINT RightForeArm
						{
							OFFSET -0.253742 -0.013329 -0.021401
							CHANNELS 3 Zrotation Yrotation Xrotation
							JOINT RightHand
							{
								OFFSET -0.255298 0.007772 -0.005559
								CHANNELS 3 Zrotation Yrotation Xrotation
								End Site
								{
									OFFSET 0.000000 0.000000 0.000000
								}
							}
						}
					}
				}
			}
		}
	}
}
MOTION
Frames: 5
Frame Time: 0.050000
0.000577 0.937246 -0.027893 -2.301012 -9.802968 4.434942 5.390728 -0.023044 -0.096456 -1.055938 0.516817 -11.852271 -4.414271 -4.733463 10.146365 0.000000 0.000000 0.000000 -1.257775 0.485762 -4.941847 1.414406 -0.237281 -5.090565 -4.011516 -13.605174 12.466464 0.000000 0.000000 0.000000 -4.379540 0.145354 -0.951497 -2.018403 1.117704 4.986161 3.235926 1.624694 5.304893 -1.693870 1.860263 -18.738580 0.000000 0.000000 0.000000 -28.111513 -19.905223 11.877242 -32.862093 -10.917335 -1.636177 -37.886551 -68.365572 30.169294 0.000000 0.000000 0.000000 31.342642 30.015533 16.460614 30.326289 10.371299 -0.159874 -10.420461 81.173307 -6.393263 0.000000 0.000000 0.000000 
0.000806 0.937296 -0.029871 -2.354538 -10.004779 4.672245 5.584935 -0.040520 -0.447613 -1.295608 0.524173 -11.843562 -4.327786 -4.549798 10.277123 0.000000 0.000000 0.000000 -1.376677 0.532409 -5.436904 1.724717 -0.244654 -4.934941 -3.921816 -13.493434 12.550501 0.000000 0.000000 0.000000 -4.530077 0.153374 -0.728649 -2.207693 1.233307 5.293285 3.406161 1.560437 4.909205 -2.375537 2.225270 -18.616519 0.000000 0.000000 0.000000 -28.510377 -19.934137 12.034746 -32.559601 -10.938608 -1.620267 -36.937272 -67.365090 28.943112 0.000000 0.000000 0.000000 31.990819 29.989434 16.496850 31.275533 9.884170 -0.206262 -12.154266 80.187238 -7.768498 0.000000 0.000000 0.000000 
0.001337 0.937299 -0.032202 -2.355924 -10.213210 4.871064 5.752409 -0.057790 -0.836702 -1.615487 0.530760 -11.755797 -4.237620 -4.367351 10.394041 0.000000 0.000000 0.000000 -1.464171 0.585674 -6.010476 1.846447 -0.242863 -4.626355 -3.842995 -13.394169 12.586008 0.000000 0.000000 0.000000 -4.805717 0.166145 -0.454778 -2.060733 1.174148 5.689836 3.320000 1.325874 4.451126 -2.650236 2.344115 -18.354171 0.000000 0.000000 0.000000 -28.862347 -19.935727 12.209546 -32.090562 -11.084174 -1.578426 -34.317986 -66.554304 26.676051 0.000000 0.000000 0.000000 32.751072 29.938254 16.473438 32.679237 9.006649 -0.328986 -12.890725 79.141569 -8.302365 0.000000 0.000000 0.000000 
0.002121 0.937418 -0.034646 -2.484335 -10.515829 5.021941 5.970207 -0.068612 -1.191899 -1.808324 0.532171 -11.575125 -4.083588 -4.115510 10.434037 0.000000 0.000000 0.000000 -1.413088 0.636465 -6.558503 1.939334 -0.238842 -4.260364 -3.699396 -13.206069 12.673141 0.000000 0.000000 0.000000 -4.944270 0.174669 0.059298 -2.202768 1.277429 6.158396 3.562858 0.967097 3.884057 -3.499810 2.771624 -18.519591 0.000000 0.000000 0.000000 -29.306044 -20.243089 12.723953 -32.100178 -11.571312 -1.490878 -30.473872 -65.495058 23.573558 0.000000 0.000000 0.000000 33.345615 29.960002 16.329355 34.344467 8.110689 -0.433692 -8.744229 77.910001 -4.941236 0.000000 0.000000 0.000000 
0.003217 0.937104 -0.037086 -2.501364 -10.750681 5.086099 6.043722 -0.074551 -1.403936 -1.994805 0.539279 -11.552233 -3.967769 -3.935086 10.440267 0.000000 0.000000 0.000000 -1.401231 0.661167 -6.821845 1.859141 -0.234239 -4.266905 -3.586412 -13.050942 12.721867 0.000000 0.000000 0.000000 -5.027438 0.181674 0.627543 -2.152346 1.273222 6.551590 3.394521 0.631314 3.427960 -3.722714 2.856997 -18.428420 0.000000 0.000000 0.000000 -29.391570 -20.684421 13.198654 -32.310812 -12.541514 -1.276124 -25.630914 -64.574243 19.984734 0.000000 0.000000 0.000000 34.215795 30.014191 16.347976 35.505245 6.425121 -0.788764 -1.833253 76.950089 0.492425 0.000000 0.000000 0.000000 
